<svg width="80" height="60" viewBox="0 0 80 60" fill="none" xmlns="http://www.w3.org/2000/svg">
<g clip-path="url(#clip0)">
<path d="M-20.08 0H100.24V60.16H-20.08V0Z" fill="#012169"/>
<path d="M-20.08 0V6.721L86.7863 60.16H100.24V53.439L-6.62621 0H-20.08ZM100.24 0V6.721L-6.62621 60.16H-20.08V53.439L86.7863 0H100.24Z" fill="white"/>
<path d="M30.0573 0V60.16H50.1028V0H30.0573ZM-20.08 20.0572V40.1027H100.24V20.0572H-20.08Z" fill="white"/>
<path d="M-20.08 24.064V36.096H100.24V24.064H-20.08ZM34.064 0V60.16H46.096V0H34.064ZM-20.08 60.16L20.0228 40.1027H28.9998L-11.1147 60.16H-20.08ZM-20.08 0L20.0228 20.0572H11.0575L-20.08 4.4885V0ZM51.172 20.0572L91.2748 0H100.24L60.1373 20.0572H51.172ZM100.24 60.16L60.1373 40.1027H69.1025L100.24 55.6715V60.16Z" fill="#C8102E"/>
</g>
<defs>
<clipPath id="clip0">
<rect width="80" height="60" fill="white"/>
</clipPath>
</defs>
</svg>
